HIERARCHY
ROOT Hips
{
	OFFSET 0.000000 0.000000 0.000000
	CHANNELS 6 Xposition Yposition Zposition Zrotation Yrotation Xrotation 
	JOINT LHipJoint
	{
		OFFSET 0.000000 0.000000 0.000000
		CHANNELS 3 Zrotation Yrotation Xrotation
		JOINT LeftUpLeg
		{
			OFFSET 1.363060 -1.794630 0.839290
			CHANNELS 3 Zrotation Yrotation Xrotation
			JOINT LeftLeg
			{
				OFFSET 2.448110 -6.726130 0.000000
				CHANNELS 3 Zrotation Yrotation Xrotation
				JOINT LeftFoot
				{
					OFFSET 2.562200 -7.039590 0.000000
					CHANNELS 3 Zrotation Yrotation Xrotation
					JOINT LeftToeBase
					{
						OFFSET 0.157640 -0.433110 2.322550
						CHANNELS 3 Zrotation Yrotation Xrotation
						End Site
						{
							OFFSET 0.000000 0.000000 0.000000
						}
					}
				}
			}
		}
	}
	JOINT RHipJoint
	{
		OFFSET 0.000000 0.000000 0.000000
		CHANNELS 3 Zrotation Yrotation Xrotation
		JOINT RightUpLeg
		{
			OFFSET -1.305520 -1.794630 0.839290
			CHANNELS 3 Zrotation Yrotation Xrotation
			JOINT RightLeg
			{
				OFFSET -2.542530 -6.985550 0.000000
				CHANNELS 3 Zrotation Yrotation Xrotation
				JOINT RightFoot
				{
					OFFSET -2.568260 -7.056230 0.000000
					CHANNELS 3 Zrotation Yrotation Xrotation
					JOINT RightToeBase
					{
						OFFSET -0.164730 -0.452590 2.363150
						CHANNELS 3 Zrotation Yrotation Xrotation
						End Site
						{
							OFFSET 0.000000 0.000000 0.000000
						}
					}
				}
			}
		}
	}
}
MOTION
Frames: 27
Frame Time: 0.008333
7.594629 17.373962 1.775919 -17.208399 -89.717717 52.127301 -13.917737 3.341395 -2.885550 -3.443755 7.427345 -6.989953 -0.597382 1.888534 35.898248 2.423097 17.039891 1.001969 2.313000 -0.000000 -28.443600 6.614627 0.207479 3.243263 8.420090 7.906356 -60.406927 3.717186 -0.696846 16.419960 0.876784 2.262344 10.181070 -0.267800 0.000000 -59.590300
7.250009 17.303601 1.733532 161.674543 -89.840529 -127.447865 -13.886412 3.529732 -3.062144 -3.535257 7.984902 -6.766035 -0.499193 2.175135 39.882720 2.578683 18.057257 -0.050966 2.160600 0.000000 -27.519300 6.670875 0.088839 3.006453 9.665977 7.236676 -59.243772 3.780500 -0.731203 16.729381 0.762349 1.800081 9.375540 -0.439100 -0.000000 -57.972200
6.903147 17.220843 1.690714 160.036024 -89.454448 -126.450608 -13.875222 3.699698 -3.191949 -3.576257 8.491266 -6.751340 -0.365095 2.463325 43.994180 2.734132 19.069039 -1.056436 1.986900 0.000000 -26.393800 6.707013 -0.045848 2.807119 10.694818 6.661265 -58.268961 3.768000 -0.826713 17.797877 0.581833 1.195577 7.816652 -0.635500 0.000000 -55.817000
6.554801 17.126488 1.647947 157.603181 -89.131521 -124.598850 -13.887240 3.844100 -3.276952 -3.574933 8.935698 -6.948432 -0.192634 2.746366 48.211604 2.888417 20.069601 -2.026105 1.790300 -0.000001 -25.126600 6.721624 -0.191141 2.649345 11.485291 6.204835 -57.503690 3.686132 -0.982052 19.586898 0.344882 0.532412 5.583000 -0.795600 0.000001 -53.208400
6.206215 17.021880 1.605647 153.796493 -88.880841 -121.317733 -13.923102 3.951597 -3.322759 -3.540661 9.312368 -7.345344 0.021902 3.015410 52.513806 3.040373 21.048839 -2.964989 1.570900 -0.000000 -23.808300 6.716047 -0.345238 2.531809 12.039542 5.871927 -56.953273 3.544642 -1.195602 22.038668 0.064374 -0.111147 2.794837 -0.867500 -0.000001 -50.275400
5.858807 16.908972 1.564170 147.105713 -88.729408 -115.107970 -13.977714 3.996709 -3.337896 -3.473476 9.615140 -7.919077 0.286902 3.252745 56.882533 3.188419 21.989799 -3.871212 1.331400 0.000000 -22.530500 6.694044 -0.522718 2.455565 12.379140 5.648915 -56.604180 3.358745 -1.465016 25.049874 -0.244608 -0.684062 -0.392588 -0.825500 0.000000 -47.197399
5.513996 16.790383 1.523954 133.437619 -88.773910 -101.890346 -13.994448 3.926157 -3.335548 -3.338737 9.822103 -8.636482 0.619148 3.420176 61.309689 3.331536 22.870957 -4.738362 1.077700 -0.000001 -21.362200 6.695477 -0.761903 2.434040 12.556054 5.502473 -56.424877 3.154793 -1.797164 28.455302 -0.567963 -1.173980 -3.809663 -0.673200 0.000000 -44.185200
5.173426 16.669260 1.485411 104.822823 -89.253209 -73.700912 -13.700359 3.756986 -3.351027 -3.004022 9.946050 -9.484118 1.005966 3.516332 65.786447 3.468929 23.667129 -5.557208 0.818500 0.000000 -20.340500 6.964899 -1.000067 2.484732 12.742575 5.456086 -56.335446 2.974230 -2.210069 32.027944 -0.889512 -1.600887 -7.278956 -0.436000 0.000000 -41.454700
4.845023 16.548691 1.439669 -155.625067 -87.252497 -173.717742 -12.801565 4.609980 -3.742799 -2.991782 11.579891 -10.172621 1.029814 4.292915 69.591495 3.585086 24.414665 -6.170361 0.612800 -0.000000 -19.511400 8.073892 -0.048879 2.422422 12.838966 6.805649 -55.689135 2.606134 -2.388871 35.889316 -1.105031 -1.750167 -10.431379 -0.144400 -0.000000 -39.281199
4.517025 16.433451 1.405402 -157.746580 -86.798485 -171.980949 -12.964914 4.688282 -3.778540 -2.819483 11.994289 -11.346532 1.373657 4.612841 73.804113 3.680171 24.957980 -6.832881 0.368800 0.000000 -18.773200 8.097001 -0.049152 2.381529 12.916559 7.076682 -55.425276 2.399522 -2.622732 39.459989 -1.315110 -1.850530 -13.524673 0.149500 -0.000000 -37.615999
4.196538 16.326208 1.373658 -157.768155 -86.334056 -172.349652 -13.106668 4.706553 -3.843069 -2.580547 12.421587 -12.621805 1.752851 4.913905 77.896816 3.756278 25.345317 -7.413871 0.149200 0.000000 -18.157500 8.143843 -0.076251 2.355099 13.058631 7.388993 -55.030075 2.229279 -2.832730 42.726537 -1.489993 -1.870712 -16.354996 0.429600 -0.000000 -36.595000
3.883848 16.229945 1.344235 -156.928300 -85.806233 -173.590285 -13.243295 4.678864 -3.935803 -2.300839 12.865626 -13.997946 2.155363 5.205699 81.817512 3.811727 25.568352 -7.921795 -0.044200 0.000000 -17.590001 8.197081 -0.122710 2.330379 13.280820 7.717911 -54.447554 2.098855 -3.006363 45.584015 -1.632029 -1.826836 -18.893507 0.679300 -0.000000 -36.201099
3.578768 16.146710 1.316694 -155.918736 -85.195106 -175.011515 -13.378991 4.610196 -4.052895 -2.008762 13.313801 -15.476604 2.571753 5.490498 85.517938 3.846169 25.629208 -8.366960 -0.210900 0.000000 -17.080100 8.246485 -0.183566 2.297880 13.578165 8.033253 -53.642489 2.008714 -3.137584 47.963907 -1.748492 -1.742413 -21.140022 0.892900 -0.000000 -36.346799
3.280573 16.077852 1.290319 -155.124237 -84.506533 -176.226079 -13.509669 4.503295 -4.184969 -1.737759 13.740582 -17.062043 2.992071 5.765681 88.953889 3.860709 25.541207 -8.774884 -0.359500 0.000000 -16.567400 8.288613 -0.254277 2.252490 13.927801 8.301793 -52.596482 1.957118 -3.223886 49.827379 -1.848006 -1.644053 -23.109003 1.072700 0.000000 -36.895700
2.988390 16.024010 1.264309 -154.726401 -83.763338 -177.049270 -13.627522 4.359238 -4.320438 -1.522958 14.113630 -18.759959 3.405150 6.025592 92.085040 3.857978 25.329689 -9.171430 -0.499100 0.000001 -16.042601 8.323886 -0.329960 2.191000 14.294582 8.492487 -51.309133 1.940840 -3.265445 51.163066 -1.937641 -1.553989 -24.821181 1.225600 -0.000000 -37.675101
2.700490 15.985151 1.237888 -154.760551 -83.000519 -177.433056 -13.724550 4.178690 -4.445301 -1.396055 14.397213 -20.576552 3.798058 6.261971 94.873896 3.841724 25.028649 -9.573761 -0.636700 0.000000 -15.566800 8.354391 -0.407788 2.112857 14.639371 8.580272 -49.795460 1.955606 -3.263971 51.980051 -2.021436 -1.486412 -26.293586 1.358601 0.000000 -38.511800
2.415382 15.960795 1.210414 -155.225425 -82.258141 -177.369432 -13.794175 3.962641 -4.546120 -1.386771 14.556723 -22.514959 4.156739 6.466364 97.290609 3.816465 24.675928 -10.006765 -0.782800 0.000000 -15.112999 8.382985 -0.485480 2.018244 14.919704 8.546736 -48.083950 1.995321 -3.222763 52.308854 -2.099300 -1.444495 -27.533472 1.475400 -0.000000 -39.284600
2.131469 15.950256 1.181545 -156.070321 -81.576468 -176.898261 -13.831920 3.711878 -4.611036 -1.512953 14.562233 -24.573665 4.467388 6.630890 99.311425 3.786787 24.308354 -10.477347 -0.940600 -0.000000 -14.734300 8.412265 -0.562428 1.908615 15.100395 8.385625 -46.212559 2.052897 -3.146298 52.192534 -2.167555 -1.423072 -28.533220 1.575199 0.000000 -39.947900
1.847078 15.952681 1.151225 -157.228710 -80.990990 -176.072372 -13.835400 3.427422 -4.630979 -1.779699 14.390305 -26.746492 4.717204 6.749630 100.918646 3.756602 23.955057 -10.990605 -1.113399 -0.000000 -14.425000 8.444537 -0.638947 1.786098 15.156894 8.103339 -44.224721 2.120389 -3.040183 51.685233 -2.219968 -1.412162 -29.271872 1.652800 -0.000000 -40.547700
1.560863 15.967344 1.119743 -158.631246 -80.529654 -174.949858 -13.803882 3.110691 -4.600215 -2.179162 14.024571 -29.020733 4.896219 6.819442 102.101967 3.728546 23.633329 -11.546803 -1.302100 -0.000000 -14.144000 8.481693 -0.715467 1.653124 15.077240 7.717729 -42.165942 2.189592 -2.911117 50.847538 -2.249255 -1.401620 -29.718599 1.701400 -0.000000 -41.202200
1.271607 15.993727 1.087613 -160.220667 -80.211481 -173.577978 -13.737810 2.764136 -4.514684 -2.692485 13.454920 -31.378018 4.998043 6.839449 102.855439 3.704060 23.349813 -12.130949 -1.501800 0.000000 -13.900500 8.525286 -0.792728 1.513156 14.861751 7.254656 -40.078518 2.252599 -2.766115 49.739901 -2.248523 -1.384539 -29.836589 1.713900 -0.000000 -42.069800
0.978455 16.031583 1.055502 -161.948582 -80.045101 -171.999656 -13.638146 2.391349 -4.373268 -3.291367 12.678677 -33.794507 5.019863 6.811544 103.176001 3.682928 23.097133 -12.732275 -1.708300 -0.000000 -13.646700 8.576526 -0.870932 1.368875 14.522760 6.744090 -37.998947 2.302387 -2.612518 48.421601 -2.212745 -1.358732 -29.591577 1.685600 0.000001 -43.303600
0.680749 16.080765 1.024213 -163.776332 -80.029403 -170.251447 -13.506189 1.998018 -4.176356 -3.940937 11.699779 -36.239949 4.961829 6.739461 103.059823 3.663517 22.856243 -13.344238 -1.917700 0.000000 -13.300000 8.636248 -0.950146 1.222354 14.080757 6.214855 -35.954122 2.333168 -2.457098 46.944912 -2.139814 -1.327780 -28.955797 1.615100 0.000000 -45.016500
0.378028 16.141311 0.994433 -165.691004 -80.155379 -168.349630 -13.343408 1.591929 -3.925419 -4.605228 10.528429 -38.677033 4.826356 6.627510 102.499387 3.643486 22.602006 -13.957394 -2.123800 0.000000 -12.806800 8.704933 -1.030543 1.074500 13.558580 5.689135 -33.958323 2.340695 -2.305568 45.351110 -2.030595 -1.297904 -27.911434 1.504100 0.000000 -47.258400
0.070131 16.213199 0.966692 -167.708330 -80.408001 -166.290087 -13.151191 1.182075 -3.623147 -5.250097 9.179777 -41.061440 4.617684 6.479388 101.481485 3.620105 22.306815 -14.550125 -2.314501 -0.000000 -12.226700 8.782507 -1.112267 0.924466 12.978165 5.179989 -32.013990 2.322484 -2.162539 43.669002 -1.889293 -1.277434 -26.454213 1.356800 0.000001 -49.995700
-0.242988 16.295988 0.941315 -169.862486 -80.768431 -164.051096 -12.930866 0.778096 -3.274670 -5.844667 7.676055 -43.345182 4.340544 6.298205 99.987869 3.590613 21.941709 -15.117608 -2.483100 -0.000000 -11.504300 8.868360 -1.195655 0.769978 12.358900 4.692822 -30.113099 2.277988 -2.031421 41.917288 -1.723403 -1.275593 -24.597689 1.179999 0.000000 -53.104100
-0.561285 16.388925 0.918285 -172.237261 -81.218176 -161.565076 -12.683341 0.388500 -2.885784 -6.367450 6.041096 -45.478078 4.001980 6.084119 97.996881 3.553298 21.487959 -15.619645 -2.610600 -0.000000 -10.822900 8.961859 -1.281315 0.608536 11.712083 4.224288 -28.240724 2.208610 -1.914374 40.102317 -1.542937 -1.301687 -22.372075 0.981600 -0.000000 -56.383300
